<svg width="55" height="55" viewBox="0 0 55 55" fill="none" xmlns="http://www.w3.org/2000/svg">
<path d="M33.9286 24.9286C33.9286 29.8906 29.8906 33.9286 24.9286 33.9286C19.9665 33.9286 15.9286 29.8906 15.9286 24.9286C15.9286 19.9665 19.9665 15.9286 24.9286 15.9286C29.8906 15.9286 33.9286 19.9665 33.9286 24.9286ZM44.2143 41.6429C44.2143 40.9598 43.933 40.2969 43.471 39.8348L36.5803 32.9442C38.2076 30.5937 39.0714 27.7812 39.0714 24.9286C39.0714 17.1138 32.7433 10.7857 24.9286 10.7857C17.1138 10.7857 10.7857 17.1138 10.7857 24.9286C10.7857 32.7433 17.1138 39.0714 24.9286 39.0714C27.7812 39.0714 30.5937 38.2076 32.9442 36.5803L39.8348 43.4509C40.2969 43.933 40.9598 44.2143 41.6429 44.2143C43.0491 44.2143 44.2143 43.0491 44.2143 41.6429Z" fill="white"/>
</svg>
