<svg width="55" height="56" viewBox="0 0 55 56" fill="none" xmlns="http://www.w3.org/2000/svg">
<path d="M37.7857 35.9643C37.7857 37.3705 36.6205 38.5357 35.2143 38.5357C33.808 38.5357 32.6429 37.3705 32.6429 35.9643C32.6429 34.558 33.808 33.3928 35.2143 33.3928C36.6205 33.3928 37.7857 34.558 37.7857 35.9643ZM22.3571 20.5357C22.3571 21.9419 21.192 23.1071 19.7857 23.1071C18.3795 23.1071 17.2143 21.9419 17.2143 20.5357C17.2143 19.1294 18.3795 17.9643 19.7857 17.9643C21.192 17.9643 22.3571 19.1294 22.3571 20.5357ZM42.9286 35.9643C42.9286 31.7053 39.4732 28.25 35.2143 28.25C30.9554 28.25 27.5 31.7053 27.5 35.9643C27.5 40.2232 30.9554 43.6786 35.2143 43.6786C39.4732 43.6786 42.9286 40.2232 42.9286 35.9643ZM41 14.1071C41 13.404 40.4174 12.8214 39.7143 12.8214H36.5C36.0982 12.8214 35.7165 13.0223 35.4754 13.3437L14.2612 41.6294C14.1004 41.8504 14 42.1116 14 42.3928C14 43.096 14.5826 43.6786 15.2857 43.6786H18.5C18.9018 43.6786 19.2835 43.4777 19.5246 43.1562L40.7388 14.8705C40.8996 14.6495 41 14.3884 41 14.1071ZM27.5 20.5357C27.5 16.2768 24.0446 12.8214 19.7857 12.8214C15.5268 12.8214 12.0714 16.2768 12.0714 20.5357C12.0714 24.7946 15.5268 28.25 19.7857 28.25C24.0446 28.25 27.5 24.7946 27.5 20.5357Z" fill="white"/>
</svg>
